<svg width="100" height="125" xmlns="http://www.w3.org/2000/svg" xml:space="preserve" enable-background="new -17.5 -17.5 100 100" version="1.1">

 <g>
  <title>Layer 1</title>
  <path id="svg_1" d="m83.89368,28.36492c-0.024,-0.034 -0.038,-0.072 -0.068,-0.103s-0.069,-0.044 -0.103,-0.068c-8.534,-8.49 -20.288,-13.746 -33.248,-13.746c-26.007,0 -47.166,21.159 -47.166,47.166c0,12.96 5.256,24.714 13.746,33.248c0.024,0.033 0.038,0.072 0.068,0.103s0.069,0.044 0.103,0.068c8.534,8.49 20.289,13.747 33.249,13.747c26.008,0 47.166,-21.158 47.166,-47.166c0,-12.96 -5.257,-24.715 -13.747,-33.249zm-33.419,-12.417c12.32,0 23.51,4.913 31.732,12.872l-10.542,10.543c-5.52,-5.26 -12.981,-8.499 -21.19,-8.499c-16.956,0 -30.75,13.794 -30.75,30.75c0,7.938 3.103,15.527 8.49,21.198l-10.534,10.534c-7.959,-8.222 -12.872,-19.412 -12.872,-31.732c0,-25.18 20.486,-45.666 45.666,-45.666zm14.109,30.495c-3.707,-3.45 -8.658,-5.579 -14.109,-5.579c-11.441,0 -20.75,9.309 -20.75,20.75c0,5.274 2.033,10.317 5.564,14.124l-6.013,6.013c-5.108,-5.392 -8.051,-12.598 -8.051,-20.137c0,-16.128 13.122,-29.25 29.25,-29.25c7.795,0 14.882,3.071 20.13,8.059l-6.021,6.02zm-7.067,7.067c-1.889,-1.643 -4.348,-2.646 -7.042,-2.646c-5.928,0 -10.75,4.822 -10.75,10.75c0,2.625 0.961,5.113 2.643,7.046l-6.017,6.017c-3.253,-3.527 -5.125,-8.188 -5.125,-13.063c0,-10.614 8.636,-19.25 19.25,-19.25c5.037,0 9.615,1.96 13.049,5.139l-6.008,6.007zm-14.084,14.084c-1.403,-1.652 -2.208,-3.758 -2.208,-5.98c0,-5.101 4.149,-9.25 9.25,-9.25c2.28,0 4.367,0.833 5.981,2.207l-13.023,13.023zm7.042,39.686c-12.321,0 -23.51,-4.913 -31.733,-12.873l10.536,-10.536c1.026,0.979 2.116,1.901 3.283,2.739c0.335,0.24 0.805,0.165 1.047,-0.172c0.241,-0.337 0.165,-0.805 -0.172,-1.047c-1.101,-0.79 -2.129,-1.658 -3.098,-2.581l6.007,-6.007c0.641,0.598 1.32,1.16 2.041,1.678c0.335,0.24 0.805,0.165 1.047,-0.172c0.241,-0.337 0.165,-0.805 -0.172,-1.047c-0.654,-0.47 -1.272,-0.979 -1.855,-1.52l6.017,-6.017c0.328,0.285 0.675,0.553 1.041,0.8c0.129,0.087 0.275,0.129 0.419,0.129c0.241,0 0.477,-0.115 0.622,-0.33c0.232,-0.344 0.142,-0.81 -0.202,-1.041c-0.286,-0.193 -0.554,-0.405 -0.813,-0.625l13.027,-13.027c1.374,1.614 2.208,3.701 2.208,5.982c0,2.973 -1.444,5.783 -3.863,7.52c-0.336,0.241 -0.413,0.71 -0.172,1.047c0.242,0.337 0.71,0.413 1.047,0.172c2.811,-2.017 4.488,-5.283 4.488,-8.738c0,-2.695 -1.004,-5.154 -2.647,-7.043l6.007,-6.007c3.18,3.435 5.141,8.012 5.141,13.05c0,6.186 -3.004,12.036 -8.036,15.648c-0.336,0.242 -0.413,0.71 -0.172,1.047c0.146,0.204 0.377,0.313 0.61,0.313c0.151,0 0.304,-0.046 0.437,-0.141c5.423,-3.894 8.661,-10.199 8.661,-16.867c0,-5.452 -2.13,-10.404 -5.58,-14.11l6.021,-6.021c4.988,5.249 8.06,12.335 8.06,20.131c0,9.398 -4.564,18.287 -12.211,23.777c-0.336,0.242 -0.413,0.71 -0.172,1.047c0.146,0.204 0.377,0.313 0.61,0.313c0.151,0 0.304,-0.046 0.437,-0.141c8.035,-5.771 12.834,-15.116 12.834,-24.996c0,-8.209 -3.239,-15.671 -8.499,-21.191l10.542,-10.542c7.96,8.223 12.873,19.412 12.873,31.733c0,25.181 -20.485,45.666 -45.666,45.666z"/>
 </g>
</svg>